<svg width="70" height="70" viewBox="0 0 70 70" fill="none" xmlns="http://www.w3.org/2000/svg">
<circle cx="35" cy="35" r="35" fill="#36C5F0"/>
<g clip-path="url(#clip0_111_17634)">
<path d="M46.063 43.683C46.1982 43.9534 46.2619 44.254 46.2483 44.556C46.2347 44.8581 46.144 45.1516 45.985 45.4088C45.826 45.666 45.6039 45.8783 45.3398 46.0255C45.0757 46.1727 44.7784 46.25 44.476 46.25H36.024C35.7216 46.2501 35.4242 46.1729 35.1601 46.0257C34.896 45.8785 34.6739 45.6661 34.5149 45.4089C34.356 45.1516 34.2655 44.858 34.252 44.5559C34.2386 44.2538 34.3026 43.9533 34.438 43.683L38.663 35.231C38.8103 34.9361 39.0368 34.6882 39.3171 34.5149C39.5974 34.3416 39.9204 34.2498 40.25 34.2498C40.5796 34.2498 40.9026 34.3416 41.1829 34.5149C41.4632 34.6882 41.6897 34.9361 41.837 35.231L46.063 43.683Z" fill="white" stroke="black" stroke-width="1.5" stroke-linecap="round" stroke-linejoin="round"/>
<path d="M40.2502 44C40.0431 44 39.8752 43.8321 39.8752 43.625C39.8752 43.4179 40.0431 43.25 40.2502 43.25" stroke="black" stroke-width="1.5"/>
<path d="M40.2502 44C40.4573 44 40.6252 43.8321 40.6252 43.625C40.6252 43.4179 40.4573 43.25 40.2502 43.25" stroke="black" stroke-width="1.5"/>
<path d="M40.25 41V38" stroke="black" stroke-width="1.5" stroke-linecap="round" stroke-linejoin="round"/>
<path d="M45.8254 35.8525C46.2595 34.8824 46.3642 33.7969 46.1235 32.7617C45.8828 31.7264 45.3099 30.7985 44.4923 30.1194C43.6747 29.4403 42.6573 29.0475 41.5955 29.0009C40.5337 28.9543 39.4858 29.2564 38.6119 29.8612C38.349 28.4621 37.693 27.1667 36.7208 26.1267C35.7486 25.0868 34.5003 24.3452 33.122 23.9887C31.7437 23.6323 30.2924 23.6757 28.9379 24.114C27.5834 24.5523 26.3818 25.3672 25.4735 26.4635C24.5653 27.5598 23.988 28.8921 23.8093 30.3045C23.6306 31.7168 23.8578 33.1509 24.4644 34.4389C25.0709 35.7268 26.0317 36.8154 27.2344 37.5772C28.437 38.3391 29.8318 38.7427 31.2554 38.7408H33.504" stroke="black" stroke-width="1.5" stroke-linecap="round" stroke-linejoin="round"/>
</g>
<defs>
<clipPath id="clip0_111_17634">
<rect width="24" height="24" fill="white" transform="translate(23 23)"/>
</clipPath>
</defs>
</svg>
