<svg width="70" height="70" viewBox="0 0 70 70" fill="none" xmlns="http://www.w3.org/2000/svg">
<circle cx="35" cy="35" r="35" fill="#36C5F0"/>
<g clip-path="url(#clip0_161_3500)">
<path d="M29 43.25H35.75" stroke="black" stroke-width="1.5" stroke-linecap="round" stroke-linejoin="round"/>
<path d="M44 43.25C44 44.0456 43.6839 44.8087 43.1213 45.3713C42.5587 45.9339 41.7956 46.25 41 46.25H29C28.2043 46.25 27.4413 45.9339 26.8787 45.3713C26.3161 44.8087 26 44.0456 26 43.25C26 42.4544 26.3161 41.6913 26.8787 41.1287C27.4413 40.5661 28.2043 40.25 29 40.25H41C41.7956 40.25 42.5587 40.5661 43.1213 41.1287C43.6839 41.6913 44 42.4544 44 43.25Z" stroke="black" stroke-width="1.5" stroke-linecap="round" stroke-linejoin="round"/>
<path d="M41 37.25C41.7341 37.2503 42.4571 37.071 43.106 36.7278C43.7549 36.3845 44.3099 35.8877 44.7228 35.2807C45.1356 34.6737 45.3936 33.9749 45.4744 33.2453C45.5552 32.5157 45.4563 31.7774 45.1863 31.0947C44.9162 30.4121 44.4833 29.8059 43.9252 29.329C43.3672 28.8521 42.7009 28.519 41.9845 28.3587C41.2682 28.1983 40.5235 28.2157 39.8154 28.4093C39.1072 28.6028 38.4572 28.9666 37.922 29.469C37.725 28.1929 37.1662 27.0001 36.3118 26.032C35.4574 25.0638 34.3433 24.361 33.1016 24.0069C31.8599 23.6528 30.5427 23.6622 29.3061 24.034C28.0696 24.4058 26.9656 25.1244 26.1251 26.1046C25.2846 27.0848 24.7428 28.2855 24.5641 29.5642C24.3853 30.843 24.5769 32.1463 25.1164 33.3194C25.6558 34.4925 26.5203 35.4864 27.6075 36.1831C28.6946 36.8797 29.9588 37.25 31.25 37.25H41Z" fill="white" stroke="black" stroke-width="1.5" stroke-linecap="round" stroke-linejoin="round"/>
</g>
<defs>
<clipPath id="clip0_161_3500">
<rect width="24" height="24" fill="white" transform="translate(23 23)"/>
</clipPath>
</defs>
</svg>
