<svg xmlns="http://www.w3.org/2000/svg" width="73" height="73" viewBox="0 0 73 73" fill="none">
<path fill-rule="evenodd" clip-rule="evenodd" d="M32.49 0.171761C26.0019 0.90141 19.4545 3.55761 14.1463 7.61323C12.5974 8.79662 9.46861 11.866 8.16338 13.4824C4.57733 17.9231 1.84019 23.6901 0.753806 29.0942C-0.847845 37.0623 0.109313 44.915 3.5634 52.1423C5.42844 56.045 7.29785 58.7343 10.3079 61.8444C13.4699 65.1118 16.4699 67.2965 20.5347 69.2923C33.2419 75.5308 48.4233 73.7973 59.5037 64.8424C61.1194 63.5367 64.1876 60.4067 65.3705 58.8572C67.8069 55.666 70.0822 51.3507 71.2475 47.7112C75.0188 35.9317 72.6213 23.1086 64.8478 13.4824C63.5425 11.866 60.4137 8.79662 58.8648 7.61323C53.4542 3.47928 47.0148 0.895201 40.3001 0.163544C38.2689 -0.0577608 34.4958 -0.0539263 32.49 0.171761ZM22.3817 9.43005C23.249 9.87284 23.6303 10.2804 23.9957 11.155C24.4783 12.3105 24.4219 12.3868 23.0844 12.3868C22.1135 12.3868 21.8713 12.3275 21.7795 12.0673C21.4057 11.0077 20.1693 10.4982 19.195 11.0022C18.4424 11.3915 18.1962 12.2756 18.2789 14.29C18.3398 15.7759 18.3802 15.9186 18.8566 16.3285C19.4113 16.8058 20.3781 16.9146 21.0184 16.5719C21.2212 16.4632 21.5059 16.0896 21.6514 15.7416L21.9157 15.1086L23.0504 15.1628L24.1852 15.217L24.1344 15.8428C24.056 16.8109 23.4573 17.6028 22.4085 18.1256C21.6335 18.5119 21.2089 18.595 20.0088 18.595C18.1935 18.595 17.1766 18.1608 16.4615 17.0802C16.0055 16.3911 15.9676 16.1808 15.915 14.0438C15.863 11.9389 15.8933 11.6802 16.2801 10.9368C16.7504 10.0321 17.2887 9.57576 18.355 9.17788C19.3251 8.81598 21.4382 8.94818 22.3817 9.43005ZM33.5522 9.55658C34.4734 10.1119 34.863 10.8786 34.8621 12.1345C34.8609 14.1974 33.9539 14.9579 31.3036 15.1179L29.6609 15.217L29.5697 16.8604L29.4784 18.5037L28.3376 18.5581L27.1968 18.6124V13.8403V9.06796L30.0716 9.12968C32.5541 9.18299 33.029 9.24124 33.5522 9.55658ZM43.8029 9.51093C44.8208 10.0313 45.2823 10.6655 45.3994 11.7052C45.5239 12.811 45.1806 13.7552 44.4383 14.3477L43.8237 14.8383L44.7278 16.5111C45.225 17.431 45.6318 18.2762 45.6318 18.3894C45.6318 18.5187 45.2302 18.595 44.55 18.595C43.2814 18.595 43.1599 18.484 42.17 16.4247L41.5374 15.1086L40.8011 15.1628L40.0648 15.217L40.0122 16.906L39.9599 18.595H38.8715H37.7833V13.8476V9.1001H40.3912C42.7359 9.1001 43.0803 9.14155 43.8029 9.51093ZM53.7587 9.29C54.0639 9.7841 57.1022 18.3111 57.0202 18.4437C56.9688 18.5269 56.4814 18.595 55.9371 18.595H54.9477L54.5333 17.7277L54.1192 16.8604H52.3177H50.516L50.1958 17.6821C49.8779 18.4979 49.8687 18.5041 48.914 18.5598C48.3852 18.5906 47.8747 18.5381 47.7794 18.4427C47.6702 18.3335 48.1603 16.7603 49.1049 14.187C49.929 11.9416 50.6837 9.8785 50.7819 9.60223C50.9549 9.11635 51.0039 9.1001 52.3011 9.1001C53.0383 9.1001 53.6941 9.18555 53.7587 9.29ZM29.5697 12.2042V13.4824H30.5489C32.1933 13.4824 32.9887 12.45 32.2059 11.332C31.9624 10.9839 31.7541 10.926 30.7457 10.926H29.5697V12.2042ZM40.0104 12.0673L40.0648 13.2085L40.9654 13.2654C41.4606 13.2969 42.0421 13.2782 42.2573 13.2242C43.0703 13.0202 43.2584 11.4992 42.5199 11.1039C42.3372 11.006 41.6856 10.926 41.072 10.926H39.9562L40.0104 12.0673ZM51.7398 12.8899C51.4439 13.7681 51.1747 14.5894 51.1415 14.7149C51.0969 14.882 51.4322 14.9431 52.3914 14.9431C53.4603 14.9431 53.6833 14.8944 53.6004 14.6787C53.5448 14.5334 53.2767 13.7732 53.0047 12.9897C52.7327 12.2062 52.4578 11.504 52.3938 11.4291C52.3297 11.3542 52.0355 12.0116 51.7398 12.8899ZM38.1483 29.0765V35.5409L39.8823 37.1331C40.836 38.0089 41.6159 38.7769 41.6155 38.8399C41.6143 39.0632 39.1493 40.2261 38.8021 40.1671C38.5949 40.1321 38.3157 40.284 38.126 40.5351C37.8674 40.8776 37.7573 40.9174 37.5741 40.7346C37.2036 40.3651 36.8863 40.471 36.7531 41.0085C36.6846 41.2846 36.4271 41.8167 36.1809 42.1908C35.9345 42.565 35.7802 42.9941 35.8379 43.1445C35.9379 43.4056 35.2215 44.4497 34.7291 44.7609C34.3425 45.005 34.4661 45.2445 35.1458 45.5688C35.6966 45.8316 35.8542 45.8416 36.1953 45.6358C36.5237 45.4377 36.5552 45.4374 36.3687 45.634C35.7153 46.3231 36.4682 46.9323 37.3861 46.4573C37.8126 46.2366 38.0302 46.2229 38.4695 46.3887C38.9762 46.5802 39.0803 46.5439 39.806 45.9225C40.5135 45.3167 41.8873 44.7336 42.1018 44.9484C42.3155 45.162 41.5257 47.1538 40.9573 47.8341C40.6084 48.2521 40.2415 48.7462 40.1418 48.9324C40.0422 49.1187 39.7693 49.2709 39.5355 49.2709C39.0328 49.2709 37.6341 50.2781 37.8446 50.4887C38.028 50.6722 40.2311 50.7255 40.8409 50.5613C41.7431 50.3183 44.1999 48.5397 45.0888 47.4861L45.7231 46.7343L46.7625 47.7114C47.758 48.6472 47.7834 48.6932 47.3609 48.7995C46.8531 48.9269 46.146 49.6168 46.2878 49.8463C46.398 50.0251 48.0597 50.0231 48.7347 49.8436C49.0361 49.7634 49.3325 49.4382 49.6074 48.8859L50.0237 48.0496L49.6484 47.1737C49.442 46.692 49.3157 46.2552 49.3677 46.2032C49.4195 46.1511 49.9146 46.5611 50.4674 47.1141C51.7299 48.3771 51.8249 48.9815 50.7914 49.1754C49.914 49.3401 49.4648 49.5854 49.4648 49.8993C49.4648 50.2378 51.0133 50.4385 52.4478 50.286L53.5716 50.1664L54.4302 51.0425C55.2424 51.8711 56.2182 53.4221 56.2182 53.8842C56.2182 54.0007 56.4385 54.2717 56.7077 54.4866L57.1973 54.877L56.5252 55.5493C55.9514 56.1234 55.8532 56.341 55.8532 57.0372C55.8532 57.5706 55.7426 57.9636 55.5337 58.1724C55.0906 58.6158 55.1891 59.7884 55.6805 59.917C56.3463 60.0911 56.0737 60.9442 55.3056 61.0899C54.8314 61.18 47.5713 61.8638 47.5534 61.8201C47.5439 61.7973 47.4423 61.5733 47.3273 61.3222C47.2123 61.0711 47.0675 60.5579 47.0057 60.1815C46.9292 59.7165 46.6475 59.247 46.1255 58.7151C45.1965 57.768 43.9205 56.8722 43.8409 57.111C43.8089 57.2065 43.6655 57.2396 43.522 57.1844C43.3785 57.1293 43.3088 57.0071 43.367 56.9127C43.4253 56.8185 43.3477 56.5499 43.1944 56.316C42.9947 56.0109 42.7926 55.9143 42.4796 55.9742C41.9961 56.0668 40.7036 55.5957 40.7036 55.3269C40.7036 55.0709 39.7709 54.5098 39.2469 54.4506C36.5132 54.1418 36.1781 54.0173 36.1884 53.3138C36.2097 51.8209 36.1391 51.5043 35.7618 51.4057C35.5236 51.3432 35.4019 51.1827 35.434 50.9735C35.4646 50.7737 35.1049 50.2498 34.5352 49.6646C34.0127 49.128 33.5852 48.5831 33.5852 48.4537C33.5852 48.3242 33.2645 47.8975 32.8726 47.5054C32.3893 47.0219 32.1246 46.5705 32.0503 46.1033C31.9855 45.6954 32.0104 45.4569 32.1111 45.5192C32.3429 45.6625 32.5417 44.9741 32.3988 44.5235C32.3281 44.3011 32.1226 44.1583 31.8731 44.1583C31.3179 44.1583 30.5504 43.2966 30.4095 42.5149C30.1105 40.857 30.1024 40.6536 30.3384 40.7323C30.4669 40.7752 30.5723 40.9395 30.5728 41.0976C30.5732 41.2558 30.8094 41.5709 31.0976 41.7979L31.6214 42.2109L31.4865 41.7694C31.4124 41.5267 31.2587 41.2048 31.1452 41.0542C30.5823 40.3079 30.492 39.9953 30.7719 39.7629C31.1038 39.4873 30.8263 39.1271 30.4065 39.2883C30.1995 39.3677 30.1534 39.5458 30.2344 39.9517C30.3708 40.6335 30.2726 40.6395 29.3745 40.0043C28.8671 39.6453 28.6638 39.3681 28.6609 39.0318C28.6583 38.7087 28.2898 38.1679 27.4839 37.3042C26.6661 36.4276 26.3129 35.9067 26.3176 35.5835C26.3215 35.3284 26.2311 34.883 26.1172 34.5936C26.0031 34.3042 25.9608 33.9067 26.0232 33.7104C26.2344 33.0443 25.9037 32.1023 25.1212 31.1411C24.6921 30.6141 24.2905 29.9891 24.2284 29.7519C24.1177 29.3278 24.5623 27.9074 24.806 27.9074C24.9222 27.9074 24.9622 27.4313 25.046 25.0483C25.0642 24.5303 24.9806 23.9878 24.8602 23.8424C24.7397 23.6973 24.6592 23.3611 24.6811 23.0953L24.7211 22.6121H31.4347H38.1483V29.0765ZM31.3551 26.3097L30.8904 27.8161L29.2083 27.8688L27.5261 27.9216L28.776 28.8568C29.4634 29.3714 30.0594 29.8193 30.1003 29.8524C30.1683 29.9073 29.5459 32.2111 29.265 32.9431C29.1989 33.1153 29.7697 32.7857 30.5332 32.2109L31.9213 31.1658L33.1455 32.093C34.2718 32.9459 34.8426 33.2479 34.6068 32.8659C34.5544 32.7812 34.3122 32.0838 34.0685 31.3162L33.6255 29.9206L34.9231 28.9597L36.2207 27.9987L34.5883 27.9074L32.956 27.8161L32.4948 26.312C32.2413 25.4847 31.9855 24.8069 31.9268 24.8056C31.868 24.8043 31.6108 25.4812 31.3551 26.3097Z" fill="#282728"/>
</svg>