<svg width="240" height="38" viewBox="0 0 240 38" fill="none" xmlns="http://www.w3.org/2000/svg">
<path d="M73.3774 5.12178H69.0155V29.9895H86.597V26.6447H73.3774V5.12178Z" fill="white"/>
<path d="M87.2762 14.4341H88.8259V29.9895H93.1878V11.1273H87.678L87.2762 14.4341Z" fill="white"/>
<path d="M127.557 10.7282C126.112 10.7282 124.821 10.9277 123.673 11.3458C122.525 11.7544 121.54 12.2961 120.708 12.9612V3.6204H116.346V29.9895H120.708V16.2586C121.349 15.5934 122.162 15.0613 123.147 14.6432C124.132 14.2346 125.108 14.0255 126.074 14.0255C127.624 14.0255 128.705 14.3201 129.336 14.8997C129.967 15.4889 130.273 16.5056 130.273 17.9595V29.98H134.597V17.7694C134.597 15.3558 134.023 13.5789 132.875 12.4386C131.727 11.2983 129.948 10.7282 127.547 10.7282H127.557Z" fill="white"/>
<path d="M144.01 26.4261C143.503 25.989 143.244 25.2288 143.244 24.136V14.5101H148.008L148.285 11.1273H143.235V5.12178L138.911 6.7942V11.1273H136.108V14.5101H138.911V24.3736C138.911 26.2266 139.409 27.6899 140.413 28.7732C141.417 29.847 142.929 30.3886 144.957 30.3886C146.449 30.3886 147.721 30.1795 148.764 29.7519V26.6922C147.96 26.9582 147.195 27.0913 146.477 27.0913C145.33 27.0913 144.507 26.8727 143.99 26.4356L144.01 26.4261Z" fill="white"/>
<path d="M161.208 10.7282C158.884 10.7282 156.894 11.2698 155.24 12.3531V3.6109H150.878V29.98H154.647L154.886 28.108C155.747 28.8777 156.674 29.4479 157.688 29.8185C158.702 30.189 159.908 30.3791 161.285 30.3791C163.954 30.3791 166.058 29.5714 167.617 27.956C169.167 26.3406 169.942 23.8129 169.942 20.4016C169.942 16.9902 169.157 14.5481 167.598 13.0183C166.039 11.4979 163.906 10.7282 161.208 10.7282ZM164.308 25.4474C163.495 26.5591 162.098 27.1198 160.118 27.1198C158.138 27.1198 156.483 26.4546 155.23 25.1338V15.6694C156.454 14.5766 158.061 14.0445 160.032 14.0445C162.002 14.0445 163.313 14.5196 164.193 15.4794C165.073 16.4391 165.513 18.083 165.513 20.4111C165.513 22.7392 165.111 24.3546 164.289 25.4664L164.308 25.4474Z" fill="white"/>
<path d="M180.971 10.7282C177.824 10.7282 175.471 11.6024 173.921 13.3508C172.371 15.0993 171.597 17.4939 171.597 20.5061C171.597 23.851 172.505 26.3311 174.323 27.9465C176.14 29.5619 178.704 30.3696 182.014 30.3696C183.276 30.3696 184.443 30.2746 185.562 30.094C186.672 29.904 187.648 29.6284 188.509 29.2578V26.0745C187.762 26.3691 186.882 26.6067 185.869 26.7872C184.855 26.9677 183.869 27.0628 182.903 27.0628C180.607 27.0628 178.905 26.7207 177.776 26.027C176.657 25.3333 175.987 24.079 175.777 22.2451H189.676V18.7387C189.676 16.3821 188.949 14.4436 187.495 12.9517C186.041 11.4599 183.869 10.6997 180.99 10.6997L180.971 10.7282ZM175.767 19.4419C175.767 17.5604 176.15 16.1825 176.906 15.3083C177.671 14.4341 179.067 13.997 181.095 13.997C182.798 13.997 184.022 14.3581 184.74 15.0898C185.457 15.8215 185.821 16.8382 185.821 18.1305V19.4419H175.767Z" fill="white"/>
<path d="M206.454 12.4006C205 11.2888 202.886 10.7282 200.102 10.7282C198.686 10.7282 197.366 10.8327 196.142 11.0513C194.908 11.2603 193.875 11.5454 193.014 11.8875V15.1088C194.965 14.4436 197.06 14.111 199.299 14.111C200.714 14.111 201.786 14.2346 202.522 14.4721C203.259 14.7097 203.766 15.0993 204.043 15.6314C204.32 16.1635 204.464 16.8762 204.464 17.7789V18.6152H198.371C195.778 18.6152 193.865 19.1663 192.622 20.2686C191.378 21.3708 190.756 22.8247 190.756 24.6302C190.756 25.9035 191.063 26.9772 191.675 27.8325C192.287 28.6972 193.11 29.3338 194.143 29.7614C195.176 30.189 196.285 30.3981 197.481 30.3981C199.184 30.3981 200.609 30.1985 201.747 29.7994C202.876 29.4003 203.842 28.8302 204.617 28.089L204.894 29.999H208.625V17.8645C208.625 15.3463 207.898 13.5314 206.444 12.4101L206.454 12.4006ZM204.473 24.8487C203.861 25.5899 203.067 26.179 202.092 26.6162C201.116 27.0533 199.978 27.2718 198.667 27.2718C197.433 27.2718 196.496 27.0628 195.826 26.6352C195.157 26.2076 194.822 25.5139 194.822 24.5256C194.822 23.5374 195.109 22.7677 195.683 22.2736C196.257 21.7794 197.185 21.5419 198.466 21.5419H204.473V24.8487Z" fill="white"/>
<path d="M238.422 12.4006C237.379 11.2888 235.762 10.7282 233.572 10.7282C231.965 10.7282 230.597 10.9657 229.449 11.4219C228.301 11.8875 227.287 12.4766 226.407 13.1893C226.006 12.4196 225.422 11.821 224.666 11.3743C223.901 10.9372 222.839 10.7187 221.481 10.7187C220.199 10.7187 218.994 10.9277 217.875 11.3553C216.746 11.7829 215.723 12.3626 214.795 13.1038L214.594 11.1178H210.595V29.98H214.881V16.2491C215.55 15.6409 216.306 15.1183 217.148 14.6812C217.99 14.2441 218.879 14.0255 219.807 14.0255C221.146 14.0255 222.045 14.3486 222.533 14.9852C223.012 15.6219 223.26 16.6292 223.26 18.007V29.98H227.307V17.8835C227.307 17.5129 227.297 17.1708 227.268 16.8477C227.24 16.5246 227.192 16.2206 227.106 15.9355C227.699 15.2988 228.397 14.8237 229.21 14.5006C230.023 14.1775 230.884 14.0255 231.793 14.0255C233.18 14.0255 234.184 14.3201 234.796 14.8997C235.409 15.4889 235.715 16.5056 235.715 17.9595V29.98H240V17.5319C240 15.2228 239.483 13.5124 238.441 12.4006H238.422Z" fill="white"/>
<path d="M92.9772 7.47837C93.5703 6.05301 92.8911 4.41861 91.4563 3.82946C90.0215 3.24031 88.3762 3.91498 87.7831 5.34034C87.1901 6.76569 87.8692 8.4001 89.3041 8.98925C90.7389 9.57839 92.3842 8.90373 92.9772 7.47837Z" fill="white"/>
<path d="M110.511 11.1273L110.033 12.6001C110.033 12.6001 108.521 10.6236 104.494 10.6236C98.6592 10.6236 95.2156 13.9305 95.2156 20.9052C95.2156 26.9582 98.4296 30.5406 103.949 30.5406C105.9 30.5406 107.766 29.8565 108.866 29.1058C109.956 28.3551 109.966 27.7849 109.966 27.7754C109.966 28.3931 109.966 28.8207 109.927 29.6094C109.784 33.0303 108.148 34.8927 104.676 34.8927C101.204 34.8927 100.084 33.9995 99.4053 32.6026L95.9139 34.161C97.1478 36.5746 99.6253 37.886 104.638 37.886C110.635 37.886 114.021 34.9687 114.241 29.1818C114.28 28.1365 114.28 26.6637 114.28 25.4759V11.1273H110.511ZM110.3 20.6962C110.3 26.3406 107.909 27.4999 104.915 27.4999C101.491 27.4999 99.3957 25.3048 99.3957 20.5536C99.3957 15.8024 101.318 13.8545 104.915 13.8545C107.479 13.8545 110.291 15.5839 110.291 19.8695V20.7057L110.3 20.6962Z" fill="white"/>
<path d="M57.3169 14.9662C55.2794 14.9662 53.615 16.4676 53.3185 18.4061H38.1666C38.0901 17.4749 37.8509 16.6006 37.4683 15.7929L43.7529 12.1915C44.2886 12.7997 45.0634 13.1893 45.953 13.1893C47.5887 13.1893 48.9087 11.878 48.9087 10.2531C48.9087 8.62815 47.5887 7.31683 45.953 7.31683C44.3173 7.31683 42.9972 8.62815 42.9972 10.2531C42.9972 10.5761 43.0642 10.8707 43.1598 11.1653L36.8752 14.7667C36.3587 14.0255 35.7082 13.3793 34.9526 12.8662L39.1136 5.71093C39.4006 5.80595 39.7162 5.87246 40.0319 5.87246C41.6676 5.87246 42.9876 4.56114 42.9876 2.93623C42.9876 1.31133 41.6676 0 40.0319 0C38.3962 0 37.0761 1.31133 37.0761 2.93623C37.0761 3.81045 37.4683 4.58014 38.0709 5.11228L33.9099 12.2676C32.9342 11.8019 31.8438 11.5359 30.6959 11.5359C29.548 11.5359 28.4576 11.8115 27.4819 12.2676L23.3208 5.11228C23.9235 4.58014 24.3157 3.81045 24.3157 2.93623C24.3157 1.31133 22.9956 0 21.3599 0C19.7242 0 18.4041 1.31133 18.4041 2.93623C18.4041 4.56114 19.7242 5.87246 21.3599 5.87246C21.6851 5.87246 21.9912 5.80595 22.2878 5.71093L26.4488 12.8662C25.6931 13.3793 25.0426 14.0255 24.5261 14.7667L18.2224 11.1463C18.3276 10.8422 18.4041 10.5191 18.4041 10.1675C18.4041 8.54264 17.0841 7.2313 15.4484 7.2313C13.8127 7.2313 12.4926 8.54264 12.4926 10.1675C12.4926 11.7924 13.8127 13.1038 15.4484 13.1038C16.2997 13.1038 17.0554 12.7332 17.6006 12.1535L23.933 15.7834C23.5504 16.5816 23.3017 17.4654 23.2348 18.3966H8.07334C7.78637 16.4486 6.1124 14.9472 4.06536 14.9472C1.81746 14.9472 0 16.7527 0 18.9857C0 21.2188 1.81746 23.0243 4.06536 23.0243C6.10283 23.0243 7.7768 21.5229 8.07334 19.5844H23.2252C23.3017 20.5061 23.5409 21.3898 23.9235 22.188L17.6293 25.7989C17.0937 25.2003 16.3189 24.8107 15.4388 24.8107C13.8031 24.8107 12.4831 26.122 12.4831 27.7469C12.4831 29.3718 13.8031 30.6832 15.4388 30.6832C17.0745 30.6832 18.3946 29.3718 18.3946 27.7469C18.3946 27.4239 18.3276 27.1198 18.232 26.8252L24.507 23.2238C25.0235 23.9745 25.674 24.6207 26.4297 25.1338L22.2686 32.2891C21.9817 32.194 21.6756 32.1275 21.3503 32.1275C19.7146 32.1275 18.3946 33.4389 18.3946 35.0638C18.3946 36.6887 19.7146 38 21.3503 38C22.986 38 24.3061 36.6887 24.3061 35.0638C24.3061 34.1895 23.9139 33.4198 23.3017 32.8877L27.4627 25.7324C28.4384 26.198 29.5289 26.4641 30.6863 26.4641C31.8438 26.4641 32.9438 26.1885 33.9291 25.7134L38.0901 32.8592C37.4683 33.4008 37.0666 34.1705 37.0666 35.0543C37.0666 36.6792 38.3866 37.9905 40.0223 37.9905C41.658 37.9905 42.9781 36.6792 42.9781 35.0543C42.9781 33.4294 41.658 32.118 40.0223 32.118C39.7067 32.118 39.4101 32.175 39.1232 32.2701L34.9621 25.1053C35.7082 24.5921 36.3587 23.946 36.8752 23.1953L43.1694 26.8062C43.0546 27.1198 42.9781 27.4524 42.9781 27.8135C42.9781 29.4384 44.2981 30.7497 45.9338 30.7497C47.5695 30.7497 48.8896 29.4384 48.8896 27.8135C48.8896 26.1885 47.5695 24.8772 45.9338 24.8772C45.0921 24.8772 44.346 25.2383 43.8007 25.7989L37.4587 22.1595C37.8414 21.3613 38.0709 20.4966 38.1475 19.5749H53.2898C53.5767 21.5229 55.2507 23.0243 57.2977 23.0243C59.5456 23.0243 61.3631 21.2188 61.3631 18.9857C61.3631 16.7527 59.5456 14.9472 57.3073 14.9472L57.3169 14.9662Z" fill="#EB0000"/>
<path d="M57.3169 14.9567V14.9662L57.3265 14.9567H57.3169Z" fill="#EB0000"/>
</svg>
