<svg width="28" height="27" viewBox="0 0 28 27" fill="none" xmlns="http://www.w3.org/2000/svg">
<g clip-path="url(#clip0_111_18559)">
<path d="M25.9331 0H2.06694C1.51876 0 0.993022 0.20999 0.605394 0.583773C0.217767 0.957557 0 1.46452 0 1.99313V25.0069C0 25.5355 0.217767 26.0424 0.605394 26.4162C0.993022 26.79 1.51876 27 2.06694 27H25.9331C26.4812 27 27.007 26.79 27.3946 26.4162C27.7822 26.0424 28 25.5355 28 25.0069V1.99313C28 1.46452 27.7822 0.957557 27.3946 0.583773C27.007 0.20999 26.4812 0 25.9331 0ZM8.34556 23.0006H4.13583V10.1063H8.34556V23.0006ZM6.23778 8.31938C5.76026 8.31678 5.29423 8.17785 4.89852 7.9201C4.50281 7.66235 4.19515 7.29735 4.01436 6.87115C3.83357 6.44495 3.78776 5.97667 3.8827 5.52539C3.97765 5.07411 4.2091 4.66006 4.54785 4.3355C4.88659 4.01095 5.31745 3.79043 5.78604 3.70177C6.25464 3.61311 6.73996 3.66029 7.18078 3.83736C7.62159 4.01442 7.99813 4.31344 8.26288 4.69666C8.52762 5.07989 8.66871 5.53015 8.66833 5.99063C8.67284 6.29891 8.61293 6.60492 8.49218 6.89041C8.37143 7.17589 8.19231 7.43501 7.9655 7.65233C7.73869 7.86964 7.46882 8.04069 7.17199 8.15529C6.87517 8.2699 6.55745 8.3257 6.23778 8.31938ZM23.8622 23.0119H19.6544V15.9675C19.6544 13.89 18.7386 13.2488 17.5564 13.2488C16.3081 13.2488 15.0831 14.1563 15.0831 16.02V23.0119H10.8733V10.1156H14.9217V11.9025H14.9761C15.3825 11.1094 16.8058 9.75375 18.9778 9.75375C21.3267 9.75375 23.8642 11.0981 23.8642 15.0356L23.8622 23.0119Z" fill="white"/>
</g>
<defs>
<clipPath id="clip0_111_18559">
<rect width="28" height="27" fill="white"/>
</clipPath>
</defs>
</svg>
