<svg width="24" height="24" viewBox="0 0 24 24" fill="none" xmlns="http://www.w3.org/2000/svg">
<path d="M15.8035 15.8034L21 21M18 10.5C18 14.6421 14.6421 18 10.5 18C6.35786 18 3 14.6421 3 10.5C3 6.35786 6.35786 3 10.5 3C14.6421 3 18 6.35786 18 10.5Z" stroke="white" stroke-width="1.5" stroke-linecap="round" stroke-linejoin="round"/>
<path d="M14.3994 13.089C14.9214 12.3078 15.2 11.3895 15.2 10.45C15.2 9.19022 14.6995 7.98204 13.8087 7.09125C12.9179 6.20045 11.7097 5.7 10.45 5.7C9.51049 5.7 8.59213 5.97859 7.81099 6.50052C7.02986 7.02246 6.42104 7.76431 6.06153 8.63226C5.70201 9.50021 5.60794 10.4553 5.79122 11.3767C5.9745 12.2981 6.4269 13.1445 7.0912 13.8088C7.7555 14.4731 8.60186 14.9255 9.52327 15.1087C10.4447 15.292 11.3997 15.1979 12.2677 14.8384C13.1356 14.4789 13.8775 13.8701 14.3994 13.089Z" fill="#EB0000"/>
</svg>
