<svg xmlns="http://www.w3.org/2000/svg" width="88" height="59" viewBox="0 0 88 59" fill="none">
  <path fill-rule="evenodd" clip-rule="evenodd" d="M66.7597 0.096723C65.7877 0.197879 28.6292 2.33259 3.96996 3.70377C0.365568 3.90392 -0.155634 4.01084 0.0334774 4.50834C0.153213 4.82405 3.10716 13.0198 6.59745 22.7214C10.0881 32.423 13.0829 40.6037 13.2526 40.9007C13.4344 41.2182 13.5661 36.6597 13.5724 29.8311L13.583 18.2216H19.942C23.4397 18.2216 27.41 18.4088 28.7654 18.6378C33.6271 19.4582 36.4736 22.2747 36.4736 26.2644C36.4736 31.2444 32.6005 34.2553 25.5565 34.7503L22.5631 34.9609L22.4624 38.4708L22.3617 41.9806H17.9723C15.5583 41.9806 13.583 42.0296 13.583 42.0893C13.583 42.5242 19.6053 58.7203 19.8663 58.987C20.0747 59.2002 28.1266 56.7742 41.4542 52.4828C53.1447 48.7185 64.8492 44.9595 67.464 44.129C70.0788 43.2989 72.3686 42.476 72.5527 42.2999C72.7489 42.1127 71.2557 41.9806 68.9431 41.9806H64.9988V30.0903V18.2L69.4889 18.3008L73.979 18.4016L74.1551 30.163L74.3312 41.9241L81.1983 39.6785C84.9753 38.4434 88.036 37.2814 87.9997 37.0967C87.9638 36.912 84.2981 28.4992 79.8541 18.4016L71.7745 0.0423652L69.8833 0.00528678C68.843 -0.0152324 67.4376 0.0258059 66.7597 0.096723ZM72.4978 6.22763C75.6785 7.87384 75.6099 13.4619 72.3879 15.165C71.0825 15.8551 68.2246 15.9443 67.0632 15.3309C64.6879 14.0767 63.6229 11.7714 64.2755 9.2947C65.1679 5.90616 69.067 4.45182 72.4978 6.22763ZM59.1881 18.3498L60.5968 18.7828L60.6986 21.9219C60.7546 23.6487 60.7546 25.0592 60.6986 25.0566C60.6426 25.0541 59.5921 24.7301 58.3644 24.3367C54.0247 22.9461 50.3009 23.7639 48.5081 26.5013C47.7897 27.5978 47.6992 28.1043 47.8094 30.4049C47.9323 32.9731 47.9774 33.0886 49.3846 34.4299C50.2175 35.2244 51.4856 35.9923 52.3692 36.2374C54.1941 36.7439 57.858 36.4945 59.9805 35.7194L61.4772 35.1729V37.9927C61.4772 39.8153 61.3215 40.9406 61.037 41.1746C59.6019 42.3546 51.8339 42.7287 48.257 41.7898C43.2355 40.4716 39.8005 37.5838 38.7155 33.7679C37.9724 31.1562 38.2284 27.1903 39.2747 25.0934C40.8161 22.0051 44.1067 19.5402 48.1883 18.4167C50.4538 17.7929 57.2417 17.7518 59.1881 18.3498ZM22.5336 23.7503C22.4349 24.0134 22.4011 25.4285 22.4585 26.8951L22.5631 29.5611L23.6196 29.4686C26.4919 29.2174 27.0106 28.9978 27.4881 27.8296C28.0819 26.3767 27.7977 24.7964 26.8321 24.1826C25.6921 23.458 22.7544 23.1624 22.5336 23.7503Z" fill="black"/>
</svg>